<svg xmlns="http://www.w3.org/2000/svg" width="330" height="216" viewBox="0 0 330 216"><path d="M235.633 35.6c-.517-.015-.932.03-1.31.263-.662.41-1.132 1.006-1.231 1.733-.099.726.139 1.5.625 2.367.972 1.733 2.993 3.93 6.23 6.953l5.73 5.354-15.027.017c-6.212.007-10.418.093-13.248.31-2.83.218-4.284.491-5.111 1.206a6 6 0 0 1-.596.38c-.33.192-.778.435-1.322.721a173 173 0 0 1-4.324 2.174 557 557 0 0 1-13.06 6.14l-17.749 8.087h-9.574c-2.652 0-5.17-.1-7.078-.262a27 27 0 0 1-2.336-.28 6 6 0 0 1-.68-.154c-.098-.03-.171-.07-.193-.08h-.004v.002l.023.024c-.122-.115-.199-.148-.314-.21a39 39 0 0 1 1.005.51c-.336-.152-2.214-1.053-2.77-1.275a170 170 0 0 0-4.507-1.7 620 620 0 0 0-14.064-4.892c-19.276-6.471-19.838-6.59-38.022-8.181-5.934-.52-10.625-.838-13.923-.948q-2.476-.082-3.897-.005a9 9 0 0 0-1.168.123c-.311.059-.55.083-.812.345-.453.452-.622 1.107-.627 1.84s.156 1.577.468 2.514c.231.693.535 1.34 1.143 1.93.609.589 1.485 1.117 2.873 1.734 2.775 1.234 7.644 2.834 16.707 5.742l19.205 6.162 4.39 9.069c1.361 2.81 2.485 4.973 3.472 6.548.986 1.576 1.812 2.584 2.748 3.041.467.23.985.296 1.464.162.48-.133.9-.437 1.29-.85.78-.823 1.489-2.114 2.306-3.878l1.867-4.035 4.084 5.838 4.438 6.343-3.004 5.659-3.06 5.763-10.296 3.532c-5.787 1.984-13.883 4.99-18.03 6.695l-7.089 2.916-1.246-1.818c-17.15-25.03-50.8-27.887-70.894-5.997-12.493 13.61-15.496 33.225-7.557 49.452 5.477 11.194 17.178 20.976 28.852 24.1 25.366 6.786 51.05-9.64 55.904-35.74l1.107-5.952 43.58.652c24.226.362 50.837.66 59.159.66h14.675l1.557 6.31c7.721 31.288 45.007 44.822 70.578 25.608 28.664-21.537 21.624-66.15-12.369-78.459l-4.031-1.46 8.805-2.401c3.048-.832 5.74-1.702 7.726-2.477.993-.387 1.808-.75 2.418-1.082.305-.166.559-.324.766-.486s.384-.311.492-.592c.155-.405.125-.816.056-1.353-.068-.537-.207-1.184-.404-1.934-.394-1.499-1.028-3.404-1.832-5.547-1.608-4.284-3.899-9.509-6.32-14.193-4.947-9.57-12.704-16.441-25.654-22.797-5.15-2.527-12.595-5.273-19.034-7.238-3.22-.983-6.184-1.77-8.492-2.235-1.154-.232-2.142-.385-2.931-.44q-.295-.02-.553-.028z" style="baseline-shift:baseline;display:inline;overflow:visible;opacity:1;fill:none;fill-opacity:1;stroke:#000;stroke-width:7;stroke-dasharray:none;stroke-opacity:1;stop-color:#000;stop-opacity:1"/></svg>